<?xml version="1.0" ?><svg data-name="Layer 1" id="Layer_1" viewBox="0 0 512 512" xmlns="http://www.w3.org/2000/svg"><path d="M227.87,330.18a30.9,30.9,0,0,0,1.62,7.21,16.18,16.18,0,0,0,4.1,5.92,36.56,36.56,0,0,0,9.24,6.26,39.26,39.26,0,0,0,9.55,3.08V303.2c-7.5,1.14-13.36,3.88-17.47,8.17A24.19,24.19,0,0,0,227.87,330.18Z"/><path d="M286.08,411.14a18.07,18.07,0,0,0,3-5.62,15.59,15.59,0,0,0,1-4.53v-.12c.2-8.92-1.52-15.35-5.26-19.7-2.79-3.17-6.89-5.62-12.43-7.37v44.89a23.61,23.61,0,0,0,13.65-7.55Z"/><path d="M327.31,190.25C355,168.8,392.23,130.84,376.88,89.91c-10.16-27.13-36.25-41.82-64.82-36.69-20.37,3.7-43,18.59-56.05,48.37-13.08-29.78-35.7-44.67-56-48.37-28.63-5.15-54.66,9.55-64.84,36.69C119.77,130.84,157,168.8,184.69,190.25H94.42v48.3H417.58v-48.3ZM316,74.89c18-3.29,33.86,5.65,40.29,22.75C369.9,134,313,176.05,289.87,189.21a9.23,9.23,0,0,0-1.2,1H267.19V157.68C268.11,103.16,293.8,78.91,316,74.89ZM222.12,189.2c-.83-.47-82.58-48.37-66.39-91.56,6.41-17.1,22.21-26,40.3-22.75,22.39,4.06,48.43,28.64,48.89,84.25v31.11H223.33A10.24,10.24,0,0,0,222.12,189.2Z"/><path d="M125.92,459.8H386.1V260.57H125.92Zm79.87-67.63c1-1.14,2.9-3,7.14-2.71,4.83.13,8.47,3.17,9,7.72,1.39,5.68,4.88,10.81,10.55,15.08,4.73,3.59,11.41,5.87,19.91,6.81l0-48.6c-11.19-1.29-21.17-5.23-28.77-11.57a41.84,41.84,0,0,1-14.28-27.7,38.71,38.71,0,0,1,2.47-17.8A41,41,0,0,1,221.59,299a45.17,45.17,0,0,1,15.82-9.71,62.49,62.49,0,0,1,15-3.49v-6.35a9.86,9.86,0,0,1,3-7.38,10.09,10.09,0,0,1,13.44-.35,9.93,9.93,0,0,1,3.58,7.73v7.44a43.76,43.76,0,0,1,22.41,11.74c7.3,7.18,11.15,16.84,11.45,28.7-1.14,6-4.25,9.17-8.45,9.68s-8.65-1.86-9.35-7.94a38.2,38.2,0,0,0-1.76-8.54,22.74,22.74,0,0,0-4.06-7.31,34.08,34.08,0,0,0-7.14-6.47,19.61,19.61,0,0,0-3.1-1.69v50.6a52.49,52.49,0,0,1,16.68,6.59,40.31,40.31,0,0,1,12.28,11.53A38.19,38.19,0,0,1,307,387.92a48.4,48.4,0,0,1,.72,13.59c-.56,8.15-4.07,15.91-10.42,22.93-5.62,6.21-14,10.15-24.88,11.74v5.94a9.42,9.42,0,0,1-3.68,7.82,10.89,10.89,0,0,1-6.52,2.25,10.17,10.17,0,0,1-6.51-2.38,9.54,9.54,0,0,1-3.3-7.69v-5.67c-11.31-1.05-21.26-4.23-29.61-9.49-10-6.41-16.24-15.76-18.48-27.8A7.75,7.75,0,0,1,205.79,392.17Z"/></svg>