<?xml version="1.0" ?><!DOCTYPE svg  PUBLIC '-//W3C//DTD SVG 1.1//EN'  'http://www.w3.org/Graphics/SVG/1.1/DTD/svg11.dtd'><svg height="512px" style="enable-background:new 0 0 512 512;" version="1.1" viewBox="0 0 512 512" width="512px" xml:space="preserve" xmlns="http://www.w3.org/2000/svg" xmlns:xlink="http://www.w3.org/1999/xlink"><g id="_x36_96_x2C__Finance_x2C__flow_x2C__income_x2C__making_x2C__money"><g><path d="M279.075,226.271c-2.703-10.092-9.266-19.164-19.027-24.789    c-9.761-5.654-20.902-6.784-30.994-4.082c-10.093,2.703-19.137,9.266-24.791,19.027c-5.624,9.762-6.756,20.874-4.054,30.966    c2.702,10.093,9.265,19.165,19.027,24.791c9.735,5.626,20.875,6.784,30.968,4.081c10.092-2.702,19.163-9.267,24.789-19.026    C280.619,247.478,281.777,236.365,279.075,226.271 M263.577,195.388c11.444,6.591,19.137,17.233,22.308,29.063    c3.145,11.803,1.821,24.873-4.797,36.316c-6.617,11.445-17.235,19.138-29.064,22.309c-11.831,3.171-24.874,1.82-36.316-4.797    c-11.471-6.592-19.137-17.236-22.308-29.064c-3.171-11.83-1.82-24.873,4.77-36.316c6.619-11.444,17.263-19.137,29.092-22.309    C239.063,187.418,252.106,188.77,263.577,195.388z M327.469,213.285c-6.039-22.476-20.627-42.66-42.382-55.207    c-21.729-12.547-46.521-15.109-68.994-9.072c-22.473,6.012-42.658,20.627-55.206,42.356c-12.546,21.755-15.11,46.519-9.098,68.991    c6.038,22.475,20.625,42.687,42.382,55.232c21.729,12.549,46.519,15.084,68.993,9.074c22.474-6.012,42.658-20.627,55.205-42.355    C330.943,260.547,333.48,235.785,327.469,213.285z M288.615,151.984c23.438,13.539,39.158,35.269,45.664,59.507    c6.48,24.21,3.724,50.903-9.816,74.342c-13.512,23.411-35.269,39.157-59.479,45.638c-24.212,6.48-50.904,3.722-74.344-9.79    c-23.438-13.538-39.155-35.295-45.664-59.507c-6.48-24.183-3.722-50.904,9.816-74.314c13.513-23.439,35.269-39.185,59.481-45.663    C238.484,135.716,265.203,138.444,288.615,151.984z M80.894,145.2l-5.24,9.073l38.522,30.691c1.241,0.965,1.599,2.619,0.993,3.997    c-1.655,4.356-3.116,8.825-4.329,13.347c-1.269,4.66-2.262,9.321-2.979,13.897c-0.219,1.519-1.405,2.62-2.839,2.841l-48.67,7.307    v20.957l48.724,7.309c1.601,0.248,2.758,1.545,2.867,3.089c0.746,4.522,1.711,9.071,2.923,13.648    c1.241,4.606,2.703,9.101,4.385,13.485c0.551,1.405,0.083,2.949-1.047,3.86l-38.55,30.718l10.478,18.145l45.859-18.033    c1.46-0.553,3.06-0.057,3.943,1.158c2.921,3.611,6.066,7.086,9.402,10.423c3.337,3.336,6.866,6.507,10.562,9.486    c1.186,0.937,1.572,2.536,1.047,3.86l-18.034,45.856l18.144,10.506l30.719-38.55c0.965-1.213,2.62-1.599,3.971-0.993    c4.357,1.683,8.825,3.145,13.347,4.356c4.687,1.241,9.319,2.234,13.926,2.952c1.488,0.22,2.592,1.405,2.813,2.839l7.335,48.697    h20.929l7.334-48.752c0.248-1.6,1.572-2.758,3.117-2.867c4.493-0.717,9.071-1.682,13.622-2.923    c4.604-1.214,9.1-2.702,13.455-4.386c1.436-0.522,2.979-0.054,3.86,1.049l30.719,38.549l18.172-10.451l-18.033-45.856    c-0.578-1.462-0.055-3.089,1.131-3.971c3.584-2.867,7.087-6.038,10.451-9.402l0.192-0.192c3.253-3.256,6.37-6.73,9.294-10.342    c0.937-1.186,2.509-1.572,3.859-1.047l45.857,18.033l10.479-18.172l-38.522-30.69c-1.214-0.993-1.6-2.647-0.993-3.999    c1.681-4.357,3.116-8.823,4.329-13.347c1.269-4.659,2.262-9.319,2.979-13.897c0.221-1.488,1.406-2.62,2.813-2.813l48.726-7.335    v-20.957l-48.754-7.307c-1.599-0.249-2.784-1.6-2.867-3.145c-0.718-4.494-1.709-9.044-2.923-13.566    c-1.241-4.632-2.703-9.154-4.384-13.511c-0.524-1.407-0.056-2.952,1.048-3.835l38.55-30.744l-10.451-18.145l-45.857,18.033    c-1.462,0.552-3.088,0.055-3.971-1.158c-2.923-3.612-6.066-7.113-9.403-10.451c-3.311-3.309-6.839-6.479-10.563-9.457    c-1.158-0.966-1.544-2.538-1.02-3.861l18.008-45.856l-18.146-10.506l-30.719,38.548c-0.965,1.215-2.618,1.572-3.969,0.994    c-4.357-1.682-8.825-3.143-13.375-4.357c-4.66-1.24-9.293-2.234-13.869-2.949c-1.49-0.25-2.62-1.408-2.813-2.842l-7.334-48.697    h-20.957l-7.309,48.754c-0.247,1.599-1.599,2.757-3.143,2.867c-4.496,0.718-9.046,1.683-13.568,2.896    c-4.661,1.24-9.154,2.729-13.512,4.385c-1.405,0.552-2.95,0.083-3.86-1.05l-30.719-38.548l-18.144,10.478l18.034,45.857    c0.553,1.461,0.056,3.062-1.158,3.942c-3.611,2.952-7.114,6.068-10.423,9.403c-3.392,3.393-6.563,6.922-9.486,10.563    c-0.965,1.186-2.536,1.572-3.887,1.047l-45.859-18.033L80.894,145.2z M241.822,251.172c1.46-0.33,2.646-1.02,3.557-2.096    c0.909-1.047,1.377-2.316,1.377-3.777c0-1.27-0.386-2.399-1.158-3.311c-0.772-0.965-2.013-1.652-3.776-2.178V251.172z     M237.602,220.316c-1.13,0.414-2.013,1.047-2.674,1.984c-0.662,0.938-0.993,1.958-0.993,3.062c0,1.02,0.304,1.985,0.911,2.868    c0.579,0.854,1.516,1.571,2.757,2.094V220.316z M228.943,460.604c-1.875,0-3.392-1.544-3.392-3.392    c0-1.874,1.516-3.392,3.392-3.392h206.675c1.876,0,3.392,1.518,3.392,3.392c0,1.848-1.516,3.392-3.392,3.392H228.943z     M456.768,460.604c-1.874,0-3.392-1.544-3.392-3.392c0-1.874,1.518-3.392,3.392-3.392h25.839c1.874,0,3.393,1.518,3.393,3.392    c0,1.848-1.519,3.392-3.393,3.392H456.768z M42.287,460.053c-1.874,0-3.392-1.544-3.392-3.392c0-1.876,1.518-3.393,3.392-3.393    h97.92c1.874,0,3.39,1.517,3.39,3.393c0,1.848-1.516,3.392-3.39,3.392H42.287z M108.799,397.043    c-3.834-2.867-7.584,2.759-4.274,5.268l5.404,4.247c3.64,2.702,7.639-2.759,4.108-5.378L108.799,397.043z M89.276,378.899    c-3.31-3.31-7.914,1.683-4.908,4.687l4.826,4.91c3.115,3.114,7.914-1.654,4.77-4.799L89.276,378.899z M72.262,358.411    c-2.73-3.667-8.079,0.497-5.46,3.972c1.325,1.848,2.702,3.749,4.138,5.515c2.592,3.474,8.079-0.524,5.32-4.164L72.262,358.411z     M58.061,335.855c-2.481-4.109-8.079-0.277-5.956,3.254c1.102,2.04,2.232,4.025,3.39,5.983c2.344,3.915,8.081,0.331,5.847-3.42    L58.061,335.855z M46.837,311.672c-1.681-4.192-7.942-1.599-6.315,2.48c0.856,2.152,1.711,4.275,2.593,6.37    c0.469,1.158,1.737,2.069,3.061,2.069c2.481,0,4.108-2.398,3.171-4.715C48.464,315.836,47.638,313.74,46.837,311.672z     M38.841,286.275c-0.249-1.187-1.379-2.262-2.537-2.481c-2.564-0.524-4.55,1.599-4.054,4.108c0.551,2.233,1.158,4.439,1.765,6.645    c0.772,3.889,7.472,3.063,6.507-1.819C39.943,290.576,39.337,288.426,38.841,286.275z M34.126,260.051    c-0.993-5.073-7.474-2.95-6.729,0.771c0.249,2.29,0.553,4.578,0.883,6.84c0.965,4.77,7.501,2.979,6.701-1.021    C34.649,264.436,34.374,262.258,34.126,260.051z M32.829,233.441c0-4.604-6.784-4.439-6.784-0.11c-0.026,2.262-0.083,4.66,0,6.894    c0,4.33,6.784,4.439,6.784-0.082V233.441z M34.952,206.858c0.193-0.937-0.193-1.792-0.551-2.398    c-1.93-2.538-5.543-1.627-6.15,1.434c-0.33,2.288-0.772,4.908-0.909,7.17c0,3.972,5.845,4.962,6.756,0.414L34.952,206.858z     M40.522,180.801c0.993-4.99-5.791-5.57-6.535-1.82l-1.765,6.646c-0.937,4.743,5.791,5.652,6.591,1.627L40.522,180.801z     M49.403,155.68c1.709-4.301-4.661-6.619-6.233-2.648l-2.62,6.37c-1.681,4.22,4.771,6.37,6.315,2.455L49.403,155.68z     M60.542,133.426c2.262-3.75-3.557-7.225-5.873-3.363l-2.481,4.412c-2.151,3.584,3.171,6.976,5.817,3.447L60.542,133.426z     M132.845,421.807c2.371,1.405,5.598-0.718,5.045-3.448c-0.219-1.074-0.688-1.846-1.653-2.425l-5.736-3.42    c-3.889-2.345-7.307,3.502-3.557,5.762L132.845,421.807z M370.459,76.648c3.832,2.868,7.582-2.784,4.274-5.266    c-1.794-1.461-3.585-2.869-5.405-4.274c-3.641-2.702-7.638,2.757-4.109,5.405L370.459,76.648z M389.982,94.768    c3.309,3.307,7.914-1.655,4.908-4.661c-1.572-1.655-3.172-3.338-4.826-4.937c-3.116-3.116-7.914,1.655-4.771,4.798L389.982,94.768    z M406.996,115.254c2.757,3.695,8.079-0.495,5.487-3.97c-1.352-1.876-2.759-3.695-4.164-5.515    c-2.62-3.531-7.914,0.716-5.322,4.189C404.376,111.643,405.728,113.517,406.996,115.254z M421.224,137.811    c2.455,4.108,8.053,0.305,5.93-3.253c-1.104-2.015-2.234-3.999-3.393-5.983c-2.315-3.889-8.078-0.332-5.818,3.418L421.224,137.811    z M432.419,161.995c1.683,4.19,7.942,1.626,6.315-2.483c-0.826-2.123-1.709-4.272-2.592-6.369    c-0.469-1.158-1.737-2.041-3.061-2.041c-2.482,0-4.109,2.372-3.172,4.717L432.419,161.995z M440.443,187.392    c0.801,4.079,7.502,3.006,6.563-1.627c-0.522-2.233-1.13-4.44-1.736-6.647c-0.799-3.887-7.5-3.031-6.535,1.82    C439.342,183.089,439.893,185.24,440.443,187.392z M445.132,213.643c1.02,5.019,7.472,2.924,6.729-0.801    c-0.248-2.287-0.552-4.576-0.883-6.81c-0.966-4.8-7.5-2.978-6.7,0.991C444.607,209.23,444.883,211.438,445.132,213.643z     M446.455,240.252c0,4.578,6.756,4.439,6.756,0.084c0.028-2.262,0.083-4.635,0-6.895c0-4.303-6.783-4.439-6.783,0.082    L446.455,240.252z M444.304,266.807c-0.826,4.109,5.958,5.543,6.702,1.075c0.357-2.261,0.771-4.991,0.91-7.278    c0-3.971-5.847-4.965-6.756-0.414L444.304,266.807z M438.763,292.866c-1.021,4.99,5.763,5.598,6.507,1.819    c0.635-2.205,1.214-4.439,1.765-6.645c0.938-4.744-5.763-5.654-6.563-1.629L438.763,292.866z M429.884,317.986    c-1.737,4.302,4.632,6.617,6.23,2.646l2.592-6.369c1.711-4.219-4.743-6.342-6.313-2.453L429.884,317.986z M418.715,340.238    c-2.261,3.779,3.585,7.225,5.875,3.393l2.48-4.439c2.151-3.585-3.171-6.977-5.818-3.446L418.715,340.238z M346.414,51.888    c-2.896-1.765-6.453,1.544-4.522,4.77c0.386,0.497,0.605,0.772,1.13,1.075l5.736,3.447c3.915,2.344,7.307-3.529,3.557-5.791    L346.414,51.888z M54.062,442.432c-1.874,0-3.392-1.516-3.392-3.392c0-1.874,1.518-3.393,3.392-3.393h298.665    c1.877,0,3.393,1.519,3.393,3.393c0,1.876-1.516,3.392-3.393,3.392H54.062z M237.602,250.675V238.57    c-3.75-1.076-6.507-2.702-8.272-4.881c-1.765-2.207-2.62-4.853-2.62-7.969c0-3.171,0.993-5.848,2.978-7.971    c1.986-2.178,4.633-3.392,7.914-3.722v-2.867h4.22v2.867c3.088,0.358,5.542,1.405,7.361,3.144    c1.822,1.736,3.006,4.026,3.502,6.922l-7.363,0.965c-0.44-2.289-1.626-3.806-3.5-4.633v11.307c4.659,1.24,7.83,2.867,9.512,4.852    c1.709,2.015,2.538,4.578,2.538,7.695c0,3.5-1.048,6.424-3.199,8.822c-2.123,2.4-5.046,3.86-8.851,4.468v5.404h-4.22v-5.349    c-3.308-0.414-6.012-1.628-8.107-3.695c-2.067-2.068-3.392-4.992-3.971-8.769l7.528-0.882c0.304,1.543,0.883,2.867,1.737,3.971    C235.645,249.38,236.582,250.18,237.602,250.675z" style="fill-rule:evenodd;clip-rule:evenodd;"/></g></g><g id="Layer_1"/></svg>