<?xml version="1.0" ?><!DOCTYPE svg  PUBLIC '-//W3C//DTD SVG 1.1//EN'  'http://www.w3.org/Graphics/SVG/1.1/DTD/svg11.dtd'><svg enable-background="new 0 0 24 24" height="24px" id="Layer_1" version="1.1" viewBox="0 0 24 24" width="24px" xml:space="preserve" xmlns="http://www.w3.org/2000/svg" xmlns:xlink="http://www.w3.org/1999/xlink"><g><path d="M23.4,14.1c0.2-0.3,0.3-0.7,0.1-1.1l-4-6.9c-0.2-0.4-0.6-0.5-1-0.5c0,0.1-0.1,0.2-0.1,0.4c0.3-0.5,0.1-1.1-0.4-1.4l-6.9-4   c-0.4-0.2-0.8-0.2-1.1,0.1C9.8,0.3,9.4,0,9,0H1C0.4,0,0,0.4,0,1v22c0,0.6,0.4,1,1,1h5.3H9h14c0.6,0,1-0.4,1-1v-8   C24,14.6,23.7,14.2,23.4,14.1z M18.2,7.9l3,5.2l-10.6,6.1L10,20.3v0l6.7-11.5L18.2,7.9z M10.9,2.8l5.2,3L10,16.3v-12L10.9,2.8z    M2,22V2h6v20H2z M20.2,16H22v6H10v-0.1l13.1-7.6L20.2,16z"/><path d="M5,17c-1.1,0-2,0.9-2,2s0.9,2,2,2s2-0.9,2-2S6.1,17,5,17z M5,20c-0.6,0-1-0.4-1-1s0.4-1,1-1s1,0.4,1,1S5.6,20,5,20z"/></g></svg>