<?xml version="1.0" ?><svg id="Layer_1" style="enable-background:new 0 0 512 512;" version="1.1" viewBox="0 0 512 512" xml:space="preserve" xmlns="http://www.w3.org/2000/svg" xmlns:xlink="http://www.w3.org/1999/xlink"><style type="text/css">
	.st0{fill:#ED8B43;}
	.st1{fill:#FFCA69;}
	.st2{fill:#FFFFFF;}
	.st3{fill:#FF9B48;}
	.st4{fill:#FFD7B3;}
	.st5{fill:#58A9DE;}
</style><g><path class="st0" d="M275.4,145.7c0.1-0.1,0.2-0.1,0.3-0.2c1.3-1,1.5-2.8,0.5-4.1c-6.4-8.2-15.3-10.7-22.2-6.2l-0.3,0.2   c-2.1,1.4-6,4-10.8,3.4c-3.6-0.4-7.7-2.9-8.3-8.9c-0.2-1.6-1.6-2.8-3.2-2.6c-1.6,0.2-2.8,1.6-2.6,3.2c1,9.3,7.8,13.4,13.4,14   c6.9,0.8,12.1-2.7,14.6-4.3l0.2-0.2c5.2-3.4,11.1,0.5,14.5,4.9c0,0,0,0,0,0c-10-0.9-29.8,2.2-36.3,16.3c-0.7,1.5,0,3.2,1.4,3.8   c0.4,0.2,0.8,0.3,1.2,0.3c1.1,0,2.1-0.6,2.6-1.7c5.9-12.7,26.9-14,32.8-12.6c1.6,0.4,3.1-0.6,3.5-2.2   C277.1,147.6,276.5,146.3,275.4,145.7z"/><path class="st1" d="M324.1,148c2.2-0.1,4.1-1.4,5.1-3.6l13.5-29.8c2-4.4-0.8-9.6-5.2-9.6h-66.9c-4.4,0-7.2,5.2-5.2,9.6l13.5,29.8   c1,2.1,2.9,3.5,5.1,3.6c-48.8,14.4-85.6,78.6-85.6,129.6c0,57.8,47.3,76.8,105.7,76.8s105.7-19,105.7-76.8   C409.7,226.6,372.8,162.4,324.1,148z"/><path class="st2" d="M330.2,244.1c-1.6-2.4-3.6-4.5-6-5.8c-2.4-1.6-5.3-2.7-8.4-3.6c-2-0.7-4-1.1-6.2-1.6v-20.9   c1.7,0.2,3.8,0.7,5.8,1.1c3.3,0.9,6.9,2.4,10,4.2l4.2-10.4c-3.1-2-6.9-3.6-11.1-4.6c-2.9-0.7-5.8-1.1-8.9-1.3v-10h-11.8v10.1   c-3.1,0.4-6.2,1.1-8.7,2.2c-4.2,2-7.5,4.6-9.5,7.8c-2,3.3-3.1,6.9-3.1,10.9c0,3.8,0.9,7.1,2.4,9.5c1.6,2.4,3.6,4.5,6.2,6   c2.4,1.6,5.3,2.7,8.4,3.6c1.6,0.4,3.1,0.9,4.5,1.1v20.9c-2.4-0.4-5.1-0.9-7.5-1.7c-4.2-1.6-7.8-3.3-10.7-5.8l-4.6,10.4   c3.1,2.4,7.1,4.6,12.2,6.2c3.3,1.1,7.1,1.6,10.7,2v9.8h11.8v-10c3.8-0.4,7.3-1.1,10.2-2.4c4.5-2,7.5-4.6,9.5-7.8   c2-3.3,3.1-6.9,3.1-10.7C332.5,249.6,331.8,246.5,330.2,244.1z M292,226.8c-1.6-1.3-2.2-3.1-2.2-5.3c0-1.7,0.4-3.6,1.6-4.9   c1.1-1.6,2.7-2.7,5.1-3.6c0.4-0.2,0.9-0.2,1.3-0.4v17.1C295.4,229,293.4,228.1,292,226.8z M317.6,259.2c-1.1,1.3-2.9,2.4-5.1,3.3   c-0.9,0.2-1.7,0.4-2.9,0.7v-17.6c0.4,0.2,0.9,0.2,1.1,0.2c2.4,0.9,4.6,1.7,6.2,3.1c1.6,1.3,2.4,3.1,2.4,5.3   C319.4,256.1,318.7,257.6,317.6,259.2z"/><path class="st3" d="M276.7,154.5h54.6c4.3,0,7.8-3.5,7.8-7.8v0c0-4.3-3.5-7.8-7.8-7.8h-54.6c-4.3,0-7.8,3.5-7.8,7.8v0   C268.9,151,272.4,154.5,276.7,154.5z"/><g><path class="st4" d="M173.2,383.3c0,5.8,4.7,10.5,10.5,10.5h143.1c2.8,0,5.5-0.9,7.7-2.5l95-69.2c6.5-4.8,7.1-14,1.3-19.6l-1-0.9    c-4.3-4.1-10.9-4.8-15.9-1.7l-68.5,42.2c-2.2,1.3-4.8,2-7.4,2l-60.8-2.2c-7.1-0.2-12.7-6.1-12.6-13.2l0.1-3.6    c0.2-7.2,6.3-12.8,13.5-12.5l50.6,0.8c7.5,0.2,13.7-4.6,13.5-12l-0.1-4.6c-0.2-7-6-12.5-13-12.5h-44.5c-3.1,0-6.2-1.1-8.5-3.1    l-8.2-4c-26.5-13.2-58.7-7.7-79.5,13.3l-11.3,11.3c-2.5,2.5-4,6-4,9.6V383.3z"/><path class="st2" d="M136.4,398.3h39c3.4,0,6.2-2.8,6.2-6.2v-92.3c0-3.4-2.8-6.2-6.2-6.2h-39c-3.4,0-6.2,2.8-6.2,6.2v92.3    C130.2,395.5,132.9,398.3,136.4,398.3z"/><path class="st5" d="M93.6,407h43.7c9,0,16.3-7.3,16.3-16.3v-89.4c0-9-7.3-16.3-16.3-16.3H93.6c-9,0-16.3,7.3-16.3,16.3v89.4    C77.2,399.7,84.5,407,93.6,407z"/></g></g></svg>